<?xml version="1.0" encoding="UTF-8" standalone="no"?>
<!DOCTYPE svg PUBLIC "-//W3C//DTD SVG 1.1//EN" "http://www.w3.org/Graphics/SVG/1.1/DTD/svg11.dtd">
<svg width="100%" height="100%" viewBox="0 0 388 567" version="1.1" xmlns="http://www.w3.org/2000/svg" xmlns:xlink="http://www.w3.org/1999/xlink" xml:space="preserve" xmlns:serif="http://www.serif.com/" style="fill-rule:evenodd;clip-rule:evenodd;stroke-linejoin:round;stroke-miterlimit:2;">
    <path d="M197.568,562.486L197.8,562.283C202.252,558.451 189.932,573.438 196.917,563.415C197.096,563.42 197.328,563.184 197.568,562.486ZM197.568,562.486C197.335,562.817 197.118,563.126 196.917,563.415C196.416,563.402 196.32,561.511 197.568,562.486ZM197.568,562.486C198.211,560.621 25.496,345.607 1.993,207.023C-15.505,103.853 85.141,3.37 189.685,0.083C191.439,0.028 193.193,0 194.949,0L193.935,0.003L193.935,76.247L164.946,76.247L164.946,150.266L88.335,150.266L88.335,205.214L164.946,205.214L164.946,408.369L223.032,408.369L223.032,205.214L299.644,205.214L299.644,150.266L223.032,150.266L223.032,76.247L194.043,76.247L194.043,0.002L189.685,0.083C191.439,0.028 193.193,0 194.949,0C196.529,0 198.106,0.022 199.68,0.066C304.109,2.997 394.979,102.468 387.553,207.023C387.413,208.993 387.246,210.972 387.052,212.957C374.608,340.397 252.586,484.629 197.568,562.486Z" style="fill:rgb(35,31,32);"/>
</svg>
