<?xml version="1.0" encoding="UTF-8" standalone="no"?>
<!DOCTYPE svg PUBLIC "-//W3C//DTD SVG 1.1//EN" "http://www.w3.org/Graphics/SVG/1.1/DTD/svg11.dtd">
<svg width="100%" height="100%" viewBox="0 0 388 567" version="1.1" xmlns="http://www.w3.org/2000/svg" xmlns:xlink="http://www.w3.org/1999/xlink" xml:space="preserve" xmlns:serif="http://www.serif.com/" style="fill-rule:evenodd;clip-rule:evenodd;stroke-linejoin:round;stroke-miterlimit:2;">
    <g transform="matrix(1,0,0,1,-420.872,-181.413)">
        <path d="M618.44,743.9C616.743,742.574 617.53,746.54 618.44,743.9C619.083,742.034 446.367,527.02 422.864,388.436C405.074,283.536 509.422,181.413 615.821,181.413C722.219,181.413 815.963,282.305 808.425,388.436C808.285,390.407 808.118,392.385 807.924,394.371C795.479,521.81 673.458,666.042 618.44,743.9C609.948,755.918 623.675,739.24 618.44,743.9Z" style="fill:rgb(35,31,32);"/>
    </g>
    <g transform="matrix(1,0,0,0.828021,1.08905,44.9673)">
        <rect x="163.857" y="37.776" width="58.086" height="401.104" style="fill:rgb(235,235,235);"/>
    </g>
    <g transform="matrix(0.766318,0,0,1,42.6653,23.7771)">
        <rect x="59.596" y="126.489" width="275.746" height="54.949" style="fill:rgb(235,235,235);"/>
    </g>
</svg>
